<svg xmlns="http://www.w3.org/2000/svg" viewBox="0 0 120 120" width="120" height="120">
  <defs>
    <linearGradient id="iconShield" x1="0%" y1="0%" x2="100%" y2="100%">
      <stop offset="0%" stop-color="#0EA5E9" />
      <stop offset="100%" stop-color="#2563EB" />
    </linearGradient>
    <linearGradient id="iconCore" x1="0%" y1="0%" x2="100%" y2="100%">
      <stop offset="0%" stop-color="#10B981" />
      <stop offset="100%" stop-color="#059669" />
    </linearGradient>
  </defs>
  <path d="M60 12 L100 28 L100 66 C100 92 80 110 60 116 C40 110 20 92 20 66 L20 28 Z" fill="url(#iconShield)" />
  <path d="M60 26 L88 38 L88 66 C88 83 74 97 60 102 C46 97 32 83 32 66 L32 38 Z" fill="#0F172A" />
  <circle cx="60" cy="65" r="22" fill="none" stroke="#38BDF8" stroke-width="2.5" stroke-dasharray="4 4" />
  <circle cx="60" cy="65" r="13" fill="none" stroke="#38BDF8" stroke-width="2" />
  <circle cx="60" cy="65" r="6" fill="url(#iconCore)" />
  <line x1="60" y1="46" x2="60" y2="40" stroke="#38BDF8" stroke-width="2.5" stroke-linecap="round" />
  <line x1="60" y1="84" x2="60" y2="90" stroke="#38BDF8" stroke-width="2.5" stroke-linecap="round" />
  <line x1="41" y1="65" x2="35" y2="65" stroke="#38BDF8" stroke-width="2.5" stroke-linecap="round" />
  <line x1="79" y1="65" x2="85" y2="65" stroke="#38BDF8" stroke-width="2.5" stroke-linecap="round" />
</svg>